<svg width="28" height="29" viewBox="0 0 28 29" fill="none" xmlns="http://www.w3.org/2000/svg">
<g id="Frame" clip-path="url(#clip0_50_366)">
<path id="Vector" d="M23.8548 24.3607H19.7085V17.8635C19.7085 16.3142 19.677 14.3203 17.5478 14.3203C15.386 14.3203 15.0558 16.0062 15.0558 17.7492V24.3607H10.9095V11H14.8925V12.8212H14.9462C15.5027 11.7712 16.856 10.6628 18.8778 10.6628C23.079 10.6628 23.856 13.4278 23.856 17.027L23.8548 24.3607ZM6.2265 9.17183C4.89183 9.17183 3.81967 8.0915 3.81967 6.76267C3.81967 5.435 4.893 4.35583 6.2265 4.35583C7.5565 4.35583 8.6345 5.435 8.6345 6.76267C8.6345 8.0915 7.55533 9.17183 6.2265 9.17183ZM8.3055 24.3607H4.1475V11H8.3055V24.3607ZM25.9292 0.5H2.06617C0.924 0.5 0 1.403 0 2.51717V26.4828C0 27.5982 0.924 28.5 2.06617 28.5H25.9257C27.0667 28.5 28 27.5982 28 26.4828V2.51717C28 1.403 27.0667 0.5 25.9257 0.5H25.9292Z" fill="white"/>
</g>
<defs>
<clipPath id="clip0_50_366">
<rect width="28" height="28" fill="white" transform="translate(0 0.5)"/>
</clipPath>
</defs>
</svg>
