<svg width="28" height="29" viewBox="0 0 28 29" fill="none" xmlns="http://www.w3.org/2000/svg">
<g id="Frame" clip-path="url(#clip0_50_364)">
<path id="Vector" d="M27.9454 5.8319C26.8971 6.29344 25.7866 6.59809 24.6496 6.73606C25.8467 6.01652 26.7431 4.88811 27.1731 3.55923C26.0636 4.20673 24.8339 4.67806 23.5249 4.94056C22.6613 4.01706 21.5169 3.40455 20.2695 3.19815C19.0221 2.99174 17.7414 3.20299 16.6263 3.79908C15.5113 4.39518 14.6242 5.34277 14.103 6.49471C13.5817 7.64664 13.4554 8.93846 13.7436 10.1696C8.97191 9.9444 4.74508 7.6519 1.91358 4.18923C1.39884 5.06401 1.13035 6.06176 1.13658 7.07673C1.13658 9.07173 2.15158 10.8252 3.68924 11.8554C2.77791 11.8264 1.88671 11.58 1.08991 11.1367V11.2067C1.08939 12.5325 1.54756 13.8177 2.38667 14.8441C3.22578 15.8706 4.39416 16.5751 5.69358 16.8382C4.85159 17.0638 3.96973 17.0977 3.11291 16.9374C3.48172 18.0784 4.19752 19.0758 5.16043 19.7905C6.12334 20.5051 7.28532 20.9014 8.48425 20.9239C6.45369 22.5175 3.94647 23.3824 1.36524 23.3797C0.910244 23.3797 0.456411 23.3529 0.000244141 23.3016C2.63191 24.9866 5.69184 25.8811 8.81675 25.8787C19.3786 25.8787 25.1477 17.1334 25.1477 9.5629C25.1477 9.3179 25.1477 9.0729 25.1302 8.8279C26.2572 8.0169 27.2294 7.01002 28.0002 5.85523L27.9454 5.8319Z" fill="white"/>
</g>
<defs>
<clipPath id="clip0_50_364">
<rect width="28" height="28" fill="white" transform="translate(0 0.5)"/>
</clipPath>
</defs>
</svg>
